<?xml version="1.0" encoding="utf-8"?>
<!-- Generator: Adobe Illustrator 16.0.3, SVG Export Plug-In . SVG Version: 6.00 Build 0)  -->
<!DOCTYPE svg PUBLIC "-//W3C//DTD SVG 1.1//EN" "http://www.w3.org/Graphics/SVG/1.1/DTD/svg11.dtd">
<svg version="1.1" id="Layer_1" xmlns="http://www.w3.org/2000/svg" xmlns:xlink="http://www.w3.org/1999/xlink" x="0px" y="0px"
	 viewBox="0 270.896 599.764 292.842" enable-background="new 0 270.896 599.764 292.842"
	 xml:space="preserve">
<g>
	<g enable-background="new    ">
		<path fill="#FFFFFF" d="M41.471,559.182l-19.151-73.866h4.561l10.943,41.948c2.736,9.117,4.56,18.239,6.383,25.544l0,0
			c0.912-7.305,3.648-16.425,6.383-25.544l12.767-41.948h5.471l10.032,41.948c2.735,9.117,4.56,18.239,6.383,25.535l0,0
			c1.825-8.207,3.648-16.418,6.383-25.535l11.854-41.035h5.471l-21.886,73.866h-4.561l-10.943-42.86
			c-2.736-10.936-4.561-18.238-5.481-24.613l0,0c-0.903,6.375-3.638,13.678-6.375,24.613l-12.767,42.86L41.471,559.182
			L41.471,559.182z"/>
		<path fill="#FFFFFF" d="M153.637,522.703h-29.181v31.917h32.831v4.562h-38.301v-73.866h36.478v4.561h-31.006v28.269h29.183v4.559
			H153.637z"/>
		<path fill="#FFFFFF" d="M170.052,487.141c4.561-0.922,9.119-1.824,14.592-1.824c9.119,0,15.502,1.824,19.16,6.382
			c2.736,2.736,4.56,7.298,4.56,11.856c0,7.305-5.48,13.68-12.767,16.423l0,0c6.383,1.815,15.502,6.372,15.502,19.153
			c0,6.372-1.824,10.933-5.472,13.677c-4.56,4.56-12.767,7.296-23.719,7.296c-5.472,0-10.032,0-12.757-0.92L170.052,487.141
			L170.052,487.141z M174.613,518.146h10.943c10.944,0,17.319-6.373,17.319-14.59c0-10.031-8.199-13.679-19.152-13.679
			c-4.56,0-7.296,0-9.119,0.911C174.613,489.876,174.613,518.146,174.613,518.146z M174.613,554.62c1.824,0,5.471,0.921,9.119,0.921
			c10.943,0,21.886-3.639,21.886-16.414c0-11.863-10.031-16.424-21.886-16.424h-9.119V554.62L174.613,554.62z"/>
	</g>
	<g enable-background="new    ">
		<path fill="#FFFFFF" d="M236.623,534.559c-1.824,2.735-3.638,5.473-3.638,8.209c3.638-4.553,9.109-6.385,14.582-6.385
			c5.472,0,10.943,2.746,17.327,7.306c6.374,5.47,11.854,8.205,15.494,8.205c2.745,0,4.56-0.921,6.384-2.745
			c1.824-1.814,2.735-3.646,2.735-6.373c0-0.921,0-1.832-0.912-2.744c-1.823,1.823-2.736,1.823-4.56,1.823
			c-3.648,0-5.471-1.823-5.471-5.481c0-1.814,0.912-3.638,2.736-5.474c1.824-0.909,3.636-1.813,6.383-1.813
			c3.639,0,6.372,0.911,8.198,3.639c1.824,2.726,2.735,5.479,2.735,10.038c0,5.472-1.815,10.935-5.472,14.59
			c-3.656,3.657-8.188,6.385-12.749,6.385s-10.944-2.728-17.326-8.207c-6.383-5.481-12.767-8.199-18.239-8.199
			c-5.481,0-8.207,1.814-9.118,5.473c0.911,0,1.824,0,1.824,0c2.736,0,3.638,0.91,3.638,3.647c0,4.559-2.735,6.373-7.295,6.373
			c-2.736,0-5.471-0.913-7.296-3.647c-1.824-2.728-2.734-6.373-2.734-10.033c0-16.415,10.933-27.357,32.83-34.65l10.031-2.736
			c10.942-3.647,16.425-9.119,16.425-18.238c0-5.473-1.824-10.033-6.383-13.679c-3.646-3.649-9.12-4.562-16.416-4.562
			c-6.384,0-10.944,0.911-15.501,3.648c-3.647,2.728-6.384,5.471-7.296,10.031c4.561,0,7.296,2.736,7.296,6.374
			c0,2.746-0.921,4.561-2.735,6.394c-1.824,1.824-3.647,2.736-6.383,2.736s-5.471-0.912-7.296-3.648
			c-1.824-1.824-2.747-4.562-2.747-8.199c0-7.303,3.647-13.678,10.042-19.159c6.393-5.481,15.501-7.298,24.622-7.298
			c10.033,0,17.317,2.735,23.711,7.298c6.383,5.481,9.118,11.854,9.118,20.061c0,5.473-1.824,10.033-4.562,14.591
			c-2.735,4.559-7.295,7.304-12.766,9.118c-1.814,0.912-7.297,2.746-16.415,5.472c-6.383,2.745-11.854,4.561-16.415,6.394
			C241.183,530,238.447,531.824,236.623,534.559z"/>
	</g>
	<g enable-background="new    ">
		<path fill="#FFFFFF" d="M312.312,486.227c4.561-0.91,10.033-1.824,15.503-1.824c9.117,0,15.502,2.735,19.16,6.375
			c3.638,3.648,5.472,8.208,5.472,14.6c0,6.394-1.824,10.943-5.472,14.599c-4.56,5.475-12.768,8.198-21.886,8.198
			c-3.649,0-6.385,0-9.118-0.919v31.917h-5.472L312.312,486.227L312.312,486.227z M317.783,523.616
			c2.735,0.922,5.472,0.922,9.12,0.922c13.679,0,20.975-6.393,20.975-18.239c0-11.863-8.209-16.422-20.063-16.422
			c-4.56,0-8.199,0-10.033,0.911v32.828H317.783z"/>
		<path fill="#FFFFFF" d="M367.029,486.227c4.559-0.91,10.943-1.813,16.425-1.813c10.02-0.012,15.493,1.813,20.05,6.373
			c2.737,2.734,5.473,8.207,5.473,12.767c0,10.033-5.479,16.422-14.6,19.15l0,0c5.481,1.833,10.042,7.305,10.945,15.512
			c2.743,11.845,3.654,17.316,5.479,20.052h-5.472c-0.911-1.814-2.734-8.207-4.561-18.237c-2.735-10.935-7.296-15.494-16.416-15.494
			H372.5v33.731h-5.472V486.227L367.029,486.227L367.029,486.227z M372.5,520.879h11.853c10.946,0,19.15-6.381,19.15-16.421
			c0-10.934-8.204-15.495-20.062-15.495c-5.479,0-9.117,0.911-10.941,0.911V520.879L372.5,520.879z"/>
		<path fill="#FFFFFF" d="M427.215,485.316v73.865h-5.472v-73.865H427.215L427.215,485.316z"/>
		<path fill="#FFFFFF" d="M445.454,559.182v-73.866h4.559l28.271,43.781c6.383,9.118,10.04,16.406,13.679,22.799l0,0
			c-0.911-10.039-0.911-18.238-0.911-30.103v-36.478h5.472v73.866h-4.561l-27.357-42.86c-5.472-8.207-10.943-16.424-14.592-23.71
			l0,0c0.911,9.118,0.911,17.315,0.911,29.17v37.391h-5.47V559.182L445.454,559.182z"/>
		<path fill="#FFFFFF" d="M529.351,489.876h-23.712v-4.561h53.806v4.561h-23.711v69.306h-5.473L529.351,489.876L529.351,489.876z"/>
	</g>
	<g enable-background="new    ">
		<path fill="#FFFFFF" d="M447.277,440.631l6.373,17.326c0.923,2.746,1.834,5.472,2.746,8.208l0,0
			c0.911-2.745,1.816-5.472,2.735-8.208l6.385-17.326h5.472l-11.856,31.007h-5.472l-11.853-31.007H447.277L447.277,440.631z"/>
		<path fill="#FFFFFF" d="M475.549,465.263c1.823,0.911,5.472,2.726,9.117,2.726c7.296,0,9.12-4.56,9.12-8.198
			c0-5.48-5.472-8.197-10.945-8.197h-2.733v-4.561h2.733c3.649,0,9.119-1.832,9.119-7.304c0-3.649-1.822-6.376-7.296-6.376
			c-3.646,0-6.383,1.815-8.207,2.729l-1.823-3.655c1.814-1.825,6.375-3.641,10.934-3.641c8.207,0,11.866,4.562,11.866,10.032
			c0,4.561-2.746,8.208-7.305,10.033l0,0c5.479,0.912,9.119,4.561,9.119,10.943s-5.462,12.757-14.584,12.757
			c-4.561,0-9.117-1.813-10.943-2.726L475.549,465.263z"/>
		<path fill="#FFFFFF" d="M507.465,467.988c0-2.726,1.823-3.638,3.649-3.638c1.814,0,3.639,1.823,3.639,3.638
			c0,2.748-1.824,3.649-3.639,3.649C509.288,472.549,507.465,470.725,507.465,467.988z"/>
		<path fill="#FFFFFF" d="M521.146,465.263c1.821,0.911,5.47,2.726,9.115,2.726c7.298,0,9.12-4.56,9.12-8.198
			c0-5.48-5.472-8.197-10.943-8.197H525.7v-4.561h2.737c3.647,0,9.117-1.832,9.117-7.304c0-3.649-1.823-6.376-7.294-6.376
			c-3.647,0-6.383,1.815-8.208,2.729l-1.822-3.655c1.814-1.825,6.371-3.641,10.933-3.641c8.208,0,11.865,4.562,11.865,10.032
			c0,4.561-2.746,8.208-7.305,10.033l0,0c5.481,0.912,9.119,4.561,9.119,10.943s-5.464,12.757-15.492,12.757
			c-4.562,0-9.12-1.813-10.946-2.726L521.146,465.263z"/>
		<path fill="#FFFFFF" d="M553.983,467.988c0-2.726,1.823-3.638,3.646-3.638c1.818,0,3.641,1.823,3.641,3.638
			c0,2.748-1.824,3.649-3.641,3.649C555.806,472.549,553.983,470.725,553.983,467.988z"/>
		<g enable-background="new    ">
			<path fill="#FFFFFF" d="M581.747,472.549v-11.437h-19.511v-3.748l18.735-26.813h6.139v26.104h5.882v4.458h-5.882v11.437H581.747z
				 M581.747,456.654v-14.021c0-2.198,0.064-4.395,0.194-6.592h-0.194c-1.292,2.456-2.323,4.266-3.487,6.203l-10.273,14.278v0.131
				H581.747z"/>
		</g>
	</g>
	<g>
		<g>
			<path fill="#007CB1" d="M12.904,391.088v-61.171h19.833c4.777,0,9.08,0.717,12.664,2.388c3.584,1.672,6.691,3.823,9.079,6.452
				c2.39,2.628,4.063,5.972,5.497,9.557c1.195,3.585,1.673,7.646,1.673,11.71c0,4.54-0.718,8.842-1.913,12.665
				c-1.435,3.822-3.346,6.928-5.736,9.556c-2.389,2.628-5.495,4.779-9.079,6.213c-3.585,1.435-7.408,2.15-11.948,2.15
				L12.904,391.088L12.904,391.088z M58.543,360.502c0-4.063-0.479-7.646-1.672-10.992c-1.195-3.346-2.866-6.211-5.019-8.842
				c-2.15-2.388-5.018-4.301-8.124-5.735c-3.346-1.435-6.93-2.151-10.993-2.151H15.771v55.438h16.966
				c4.301,0,7.886-0.717,11.23-2.151c3.107-1.435,5.974-3.346,8.125-5.735c2.15-2.389,3.823-5.496,4.778-8.842
				C58.064,368.148,58.543,364.325,58.543,360.502z"/>
			<path fill="#007CB1" d="M86.978,391.804c-3.106,0-5.973-0.478-8.363-1.913c-2.629-1.195-5.02-2.867-6.931-5.019
				c-1.912-2.15-3.583-4.539-4.539-7.407c-0.956-2.866-1.672-5.736-1.672-9.079c0-3.107,0.478-6.213,1.672-8.841
				c1.193-2.63,2.628-5.258,4.539-7.17c1.914-2.15,4.303-3.585,6.692-4.778c2.628-1.195,5.495-1.672,8.363-1.672
				c3.107,0,5.974,0.478,8.602,1.672c2.628,1.194,5.019,2.867,6.929,5.018c1.913,2.151,3.585,4.539,4.541,7.408
				c0.956,2.867,1.672,5.735,1.672,8.842c0,0.238,0,0.477,0,0.716c0,0.238,0,0.478,0,0.478H68.34
				c0.238,2.629,0.957,5.257,1.913,7.646c0.957,2.39,2.389,4.54,4.061,6.213c1.673,1.672,3.585,3.106,5.735,4.062
				c2.151,0.956,4.541,1.434,6.929,1.434c1.672,0,3.106-0.238,4.778-0.718c1.434-0.477,3.106-0.955,4.54-1.912
				c1.434-0.716,2.628-1.672,3.584-2.867c0.956-1.195,1.913-2.389,2.39-3.584l2.628,0.717c-0.717,1.434-1.434,3.105-2.628,4.3
				c-1.196,1.434-2.628,2.39-4.302,3.585c-1.671,0.956-3.345,1.671-5.257,2.151C90.8,391.565,89.128,391.804,86.978,391.804z
				 M105.616,367.431c-0.239-2.867-0.956-5.256-1.912-7.646c-0.956-2.389-2.39-4.3-4.062-6.211
				c-1.672-1.673-3.586-3.108-5.736-4.063c-2.151-0.956-4.54-1.434-7.168-1.434c-2.391,0-4.78,0.478-7.169,1.434
				c-2.151,0.955-4.063,2.389-5.737,4.063c-1.672,1.671-2.868,3.822-4.062,6.211c-0.955,2.39-1.671,4.779-1.671,7.646H105.616
				L105.616,367.431z"/>
			<path fill="#007CB1" d="M127.599,391.804c-3.584,0-6.69-0.478-9.557-1.672c-2.867-1.195-5.496-2.868-7.886-5.258l1.673-1.912
				c2.389,2.149,4.779,3.822,7.408,4.778c2.389,1.194,5.256,1.672,8.363,1.672c4.302,0,7.646-0.957,10.035-2.629
				c2.629-1.672,3.823-4.3,3.823-7.407c0-1.434-0.238-2.629-0.955-3.823c-0.718-0.956-1.672-1.913-2.868-2.628
				c-1.195-0.717-2.867-1.435-4.541-1.913c-1.913-0.479-4.061-1.196-6.452-1.673c-2.389-0.478-4.54-1.196-6.451-1.672
				c-1.673-0.479-3.345-1.195-4.54-1.912c-1.195-0.716-2.151-1.672-2.629-2.867c-0.479-1.195-0.955-2.628-0.955-4.301
				c0-2.151,0.479-4.063,1.195-5.736c0.956-1.673,1.911-2.868,3.584-4.063c1.434-0.955,3.106-1.913,5.018-2.388
				c1.913-0.479,4.063-0.718,6.213-0.718c3.585,0,6.69,0.479,9.319,1.671c2.627,1.195,4.54,2.628,5.735,4.541l-1.913,1.433
				c-1.195-1.671-3.105-3.106-5.496-4.062c-2.389-0.955-5.019-1.433-7.646-1.433c-1.672,0-3.584,0.238-5.019,0.479
				c-1.434,0.477-2.868,0.955-4.062,1.671c-1.195,0.717-2.15,1.914-2.867,3.107c-0.717,1.195-0.956,2.629-0.956,4.54
				c0,1.433,0.238,2.39,0.717,3.585c0.479,0.955,1.196,1.672,2.15,2.389c0.956,0.479,2.39,1.195,3.822,1.435
				c1.435,0.478,3.345,0.955,5.495,1.434c2.629,0.717,5.257,1.194,7.408,1.911c2.149,0.719,3.823,1.435,5.496,2.152
				c1.434,0.956,2.628,1.912,3.344,3.105c0.715,1.195,1.195,2.869,1.195,4.778c0,1.914-0.479,3.822-1.195,5.497
				c-0.717,1.433-1.912,2.867-3.344,4.061c-1.435,1.196-3.345,1.912-5.258,2.629C132.38,391.566,129.99,391.804,127.599,391.804z"/>
			<path fill="#007CB1" d="M150.538,335.411v-7.169h2.868v7.169H150.538z M150.538,391.088v-44.685h2.868v44.685H150.538z"/>
			<path fill="#A8A8A8" d="M181.363,391.804c-3.106,0-5.973-0.717-8.602-1.913c-2.629-1.435-4.78-3.106-6.691-5.258
				c-1.912-2.149-3.344-4.54-4.541-7.406c-0.955-2.628-1.672-5.495-1.672-8.363c0-3.107,0.478-5.974,1.434-8.602
				c0.955-2.868,2.389-5.256,4.3-7.407c1.913-2.152,4.062-3.824,6.452-5.256c2.628-1.195,5.495-1.913,8.363-1.913
				c1.913,0,3.823,0.239,5.494,0.956c1.673,0.479,3.345,1.435,4.779,2.39c1.434,0.955,2.867,2.15,4.062,3.584
				c1.194,1.433,2.391,2.629,3.585,4.302v-10.036h2.628V393c0,3.106-0.479,5.736-1.672,7.887c-1.196,2.15-2.629,4.062-4.541,5.496
				c-1.911,1.434-4.062,2.628-6.451,3.344c-2.391,0.715-5.02,1.195-7.646,1.195c-2.629,0-5.019-0.238-6.931-0.718
				c-2.149-0.479-3.823-1.194-5.494-2.149c-1.672-0.957-2.868-1.913-4.063-3.346c-1.193-1.195-2.15-2.628-3.105-4.301l2.15-1.195
				c1.913,3.105,4.302,5.494,7.407,6.929c3.106,1.434,6.453,2.151,10.036,2.151c2.39,0,4.54-0.238,6.691-0.955
				c2.15-0.718,3.823-1.673,5.495-2.868c1.673-1.196,2.868-2.867,3.823-4.777c0.957-1.913,1.434-4.062,1.434-6.692v-10.513
				c-0.956,1.434-1.913,2.868-3.345,4.061c-1.195,1.196-2.628,2.15-4.302,3.108c-1.434,0.956-3.105,1.434-4.54,1.912
				C184.708,391.566,183.036,391.804,181.363,391.804z M181.841,389.177c1.912,0,4.062-0.479,5.974-1.196
				c1.912-0.717,3.584-1.672,5.257-3.106c1.434-1.195,2.866-2.628,3.822-4.062c0.957-1.434,1.672-3.106,1.672-4.541v-15.531
				c-0.717-1.673-1.672-3.585-2.867-5.018c-1.196-1.435-2.628-2.868-4.302-4.062c-1.434-1.195-3.344-1.912-5.019-2.63
				c-1.673-0.717-3.585-0.955-5.496-0.955c-2.868,0-5.496,0.478-7.645,1.673c-2.151,1.195-4.063,2.866-5.735,4.777
				c-1.435,1.913-2.628,4.063-3.585,6.452c-0.955,2.39-1.195,4.779-1.195,7.408c0,2.628,0.479,5.256,1.434,7.646
				c0.956,2.389,2.39,4.54,4.063,6.453c1.671,1.912,3.584,3.345,5.973,4.54C176.823,388.459,179.212,389.177,181.841,389.177z"/>
			<path fill="#86AA6F" d="M246.597,391.088h-2.867v-25.091c0-6.212-0.956-10.512-2.628-13.38c-1.671-2.867-4.54-4.301-8.364-4.301
				c-1.911,0-4.061,0.477-5.974,1.194c-1.913,0.716-3.822,1.672-5.496,3.106c-1.671,1.434-3.105,2.869-4.54,4.539
				c-1.194,1.673-2.15,3.586-2.867,5.736v27.957h-2.868v-44.444h2.868v10.993c0.955-1.672,2.15-3.346,3.585-4.778
				c1.434-1.434,2.867-2.629,4.541-3.823c1.671-0.955,3.584-1.912,5.494-2.388c1.913-0.478,3.824-0.956,5.975-0.956
				c4.779,0,8.125,1.672,10.276,5.017c2.15,3.345,3.107,8.363,3.107,15.055L246.597,391.088L246.597,391.088z"/>
			<path fill="#86AA6F" d="M275.748,328.242l-0.955,7.887h1.195v6.929h-3.345v-7.169l1.434-7.886L275.748,328.242L275.748,328.242z"
				/>
			<path fill="#DD2246" d="M306.812,335.651v55.199h-3.107v-60.933h2.15l44.922,56.391v-56.391h3.108v60.931h-3.108L306.812,335.651
				z"/>
			<path fill="#DD2246" d="M379.692,343.298l0.954-7.887h-1.194v-7.169h3.347v7.169l-1.438,7.887H379.692z"/>
			<path fill="#E2BA7A" d="M452.093,375.317c0,2.15-0.479,4.301-1.195,6.212s-1.912,3.584-3.345,5.018
				c-1.434,1.435-3.106,2.629-5.019,3.345c-1.911,0.714-3.823,1.196-5.973,1.196h-28.435v-61.171h27.718
				c2.151,0,4.063,0.479,5.736,1.433c1.67,0.956,3.107,2.15,4.298,3.585c1.197,1.433,2.152,3.106,2.87,5.018
				c0.715,1.912,0.953,3.823,0.953,5.496c0,3.106-0.715,5.974-2.388,8.364c-1.436,2.628-3.585,4.539-6.451,5.735
				c1.673,0.478,3.345,1.195,4.541,2.39c1.432,0.955,2.627,2.149,3.583,3.583c0.955,1.436,1.672,2.868,2.391,4.541
				C451.853,371.733,452.093,373.406,452.093,375.317z M410.995,332.782v26.047h23.656c1.67,0,3.345-0.479,4.776-1.197
				c1.436-0.716,2.63-1.671,3.823-2.866c0.957-1.196,1.911-2.629,2.39-4.303c0.48-1.433,0.957-3.105,0.957-4.778
				c0-1.671-0.238-3.345-0.957-5.018c-0.479-1.435-1.433-2.868-2.39-4.302c-0.955-1.195-2.149-2.151-3.583-2.868
				c-1.434-0.717-2.868-1.195-4.542-1.195L410.995,332.782L410.995,332.782z M449.224,374.84c0-1.673-0.238-3.344-0.954-5.019
				c-0.717-1.673-1.436-3.105-2.631-4.302c-1.192-1.194-2.39-2.148-3.823-2.866c-1.431-0.717-3.104-1.196-4.775-1.196h-26.045
				v26.763h25.328c1.673,0,3.583-0.479,5.016-1.194c1.438-0.717,2.869-1.673,4.065-3.106c1.193-1.434,2.148-2.628,2.627-4.302
				C448.748,378.185,449.224,376.512,449.224,374.84z"/>
			<path fill="#E2BA7A" d="M472.644,391.804c-4.778,0-8.365-1.672-10.513-5.019c-2.39-3.345-3.587-8.364-3.587-15.053v-25.33h2.868
				v25.09c0,11.709,4.06,17.683,11.948,17.683c1.914,0,4.062-0.479,5.975-1.196c1.912-0.717,3.823-1.672,5.495-2.868
				c1.674-1.194,3.106-2.867,4.302-4.539c1.195-1.672,2.147-3.585,2.866-5.735v-28.436h2.866v40.143c0,1.196,0.48,1.913,1.436,1.913
				v2.629c-0.236,0-0.479,0-0.955,0c-0.956,0-1.673-0.479-2.39-1.195c-0.717-0.717-0.957-1.672-0.957-2.628v-7.407
				c-1.911,3.584-4.538,6.452-8.121,8.602C480.29,390.848,476.707,391.804,472.644,391.804z"/>
			<path fill="#E2BA7A" d="M508.008,407.336c1.913,0,3.347-0.239,4.063-0.479c0.238-0.239,0.477-0.479,0.953-0.957
				c0.24-0.477,0.719-1.194,1.194-2.387c0.48-1.195,1.197-2.629,2.152-4.542c0.955-1.912,1.911-4.54,3.347-7.885l-20.313-44.685
				h3.108l18.877,41.578l17.683-41.578h2.866l-25.567,59.738c-0.717,1.913-2.389,3.107-4.776,3.584
				c-0.48,0.239-1.197,0.239-1.674,0.239c-0.476,0-1.196,0-1.671,0L508.008,407.336L508.008,407.336z"/>
		</g>
		<polygon fill="#E2BA7A" points="398.57,284.994 589.49,284.994 599.764,270.896 408.844,270.896 		"/>
		<polygon fill="#DD2246" points="336.445,270.896 326.168,284.994 398.57,284.994 408.844,270.896 		"/>
		<polygon fill="#86AA6F" points="264.28,270.896 254.005,284.994 326.168,284.994 336.445,270.896 		"/>
		<polygon fill="#A8A8A8" points="205.975,270.896 195.7,284.994 254.005,284.994 264.28,270.896 		"/>
		<polygon fill="#007CB1" points="10.277,270.896 0,284.994 195.7,284.994 205.975,270.896 		"/>
	</g>
</g>
</svg>
