<?xml version="1.0" encoding="utf-8"?>
<!-- Generator: Adobe Illustrator 16.0.0, SVG Export Plug-In . SVG Version: 6.00 Build 0)  -->
<!DOCTYPE svg PUBLIC "-//W3C//DTD SVG 1.1//EN" "http://www.w3.org/Graphics/SVG/1.1/DTD/svg11.dtd">
<svg version="1.1" id="Apply_n_Close_1_" xmlns="http://www.w3.org/2000/svg" xmlns:xlink="http://www.w3.org/1999/xlink" x="0px"
	 y="0px" width="74.5px" height="34.5px" viewBox="0 0 74.5 34.5" enable-background="new 0 0 74.5 34.5" xml:space="preserve">
<!-- <g fill="#FFFFFF">
	<g>
		<path d="M9.432,19.41L8.738,21H7.489l3.052-6.99h1.249L14.842,21h-1.249L12.9,19.41H9.432z M12.424,18.32l-1.259-2.88l-1.258,2.88
			H12.424z"/>
		<path d="M20.48,14.62c0.482,0.407,0.723,1.033,0.723,1.88s-0.246,1.467-0.738,1.86c-0.492,0.394-1.247,0.59-2.264,0.59h-1.229V21
			h-1.169v-6.99h2.378C19.231,14.01,19.998,14.213,20.48,14.62z M19.653,17.505c0.234-0.25,0.352-0.616,0.352-1.1
			c0-0.483-0.148-0.825-0.446-1.025c-0.297-0.2-0.763-0.3-1.397-0.3h-1.189v2.8h1.358C18.977,17.88,19.418,17.755,19.653,17.505z"/>
		<path d="M27.259,14.62c0.482,0.407,0.723,1.033,0.723,1.88s-0.246,1.467-0.738,1.86c-0.492,0.394-1.247,0.59-2.264,0.59H23.75V21
			h-1.169v-6.99h2.378C26.01,14.01,26.776,14.213,27.259,14.62z M26.431,17.505c0.234-0.25,0.352-0.616,0.352-1.1
			c0-0.483-0.148-0.825-0.446-1.025c-0.297-0.2-0.763-0.3-1.397-0.3H23.75v2.8h1.358C25.755,17.88,26.197,17.755,26.431,17.505z"/>
		<path d="M29.359,21v-6.99h1.169v5.87h3.161V21H29.359z"/>
		<path d="M37.039,21H35.85v-2.76l-2.576-4.23h1.278l1.893,3.18l1.893-3.18h1.278l-2.576,4.23V21z"/>
	</g>
</g> -->
<g fill="#FFFFFF">
	<g>
		<polygon fill-rule="evenodd" clip-rule="evenodd" points="69.28,10.926 68.599,10.195 56.267,21.57 49.325,15.62 48.675,16.38 
			55.675,22.38 55.833,22.195 56.401,22.805 		"/>
	</g>
</g>
<g fill="#FFFFFF">
	<g>
		<polygon fill-rule="evenodd" clip-rule="evenodd" points="194.994,23.328 188.551,16.826 194.659,10.662 194.009,10.005 
			187.9,16.169 181.924,10.138 181.264,10.804 187.24,16.835 181.132,23 181.782,23.656 187.891,17.492 194.334,23.994 		"/>
	</g>
</g>
</svg>
