<?xml version="1.0" encoding="utf-8"?>
<!-- Generator: Adobe Illustrator 16.0.0, SVG Export Plug-In . SVG Version: 6.00 Build 0)  -->
<!DOCTYPE svg PUBLIC "-//W3C//DTD SVG 1.1//EN" "http://www.w3.org/Graphics/SVG/1.1/DTD/svg11.dtd">
<svg version="1.1" id="Apply_n_Close_1_" xmlns="http://www.w3.org/2000/svg" xmlns:xlink="http://www.w3.org/1999/xlink" x="0px"
	 y="0px" width="74.5px" height="34.5px" viewBox="0 0 74.5 34.5" enable-background="new 0 0 74.5 34.5" xml:space="preserve">
<g id="apply">
	<g>
		<path d="M-119.568,19.41l-0.694,1.59h-1.249l3.052-6.99h1.249l3.052,6.99h-1.249l-0.693-1.59H-119.568z M-116.576,18.32
			l-1.259-2.88l-1.258,2.88H-116.576z"/>
		<path d="M-108.52,14.62c0.482,0.407,0.723,1.033,0.723,1.88s-0.246,1.467-0.738,1.86c-0.492,0.394-1.247,0.59-2.264,0.59h-1.229
			V21h-1.169v-6.99h2.378C-109.769,14.01-109.002,14.213-108.52,14.62z M-109.347,17.505c0.234-0.25,0.352-0.616,0.352-1.1
			c0-0.483-0.148-0.825-0.446-1.025c-0.297-0.2-0.763-0.3-1.397-0.3h-1.189v2.8h1.358C-110.023,17.88-109.582,17.755-109.347,17.505
			z"/>
		<path d="M-101.741,14.62c0.482,0.407,0.723,1.033,0.723,1.88s-0.246,1.467-0.738,1.86c-0.492,0.394-1.247,0.59-2.264,0.59h-1.229
			V21h-1.169v-6.99h2.378C-102.99,14.01-102.224,14.213-101.741,14.62z M-102.569,17.505c0.234-0.25,0.352-0.616,0.352-1.1
			c0-0.483-0.148-0.825-0.446-1.025c-0.297-0.2-0.763-0.3-1.397-0.3h-1.189v2.8h1.358C-103.245,17.88-102.803,17.755-102.569,17.505
			z"/>
		<path d="M-99.641,21v-6.99h1.169v5.87h3.161V21H-99.641z"/>
		<path d="M-91.961,21h-1.189v-2.76l-2.576-4.23h1.278l1.893,3.18l1.893-3.18h1.278l-2.576,4.23V21z"/>
	</g>
</g>
<g id="Shape_66_1_">
	<g>
		<polygon fill-rule="evenodd" clip-rule="evenodd" points="-59.72,10.926 -60.401,10.195 -72.733,21.57 -79.675,15.62 
			-80.325,16.38 -73.325,22.38 -73.167,22.195 -72.599,22.805 		"/>
	</g>
</g>
<g id="Shape_44_copy_1_">
	<g>
		<polygon fill-rule="evenodd" clip-rule="evenodd" points="65.994,23.328 59.551,16.826 65.659,10.662 65.009,10.005 58.9,16.169 
			52.924,10.138 52.264,10.804 58.24,16.835 52.132,23 52.782,23.656 58.891,17.492 65.334,23.994 		"/>
	</g>
</g>
<!-- <g id="close">
	<g>
		<path d="M16.611,19.93c0.403,0,0.75-0.068,1.041-0.205c0.29-0.137,0.595-0.355,0.911-0.655l0.753,0.78
			c-0.732,0.82-1.623,1.23-2.67,1.23c-1.048,0-1.916-0.34-2.606-1.02s-1.035-1.54-1.035-2.58s0.352-1.907,1.055-2.6
			c0.704-0.693,1.593-1.04,2.666-1.04s1.971,0.4,2.69,1.2l-0.743,0.82c-0.33-0.32-0.643-0.543-0.937-0.67
			c-0.294-0.126-0.64-0.19-1.035-0.19c-0.701,0-1.289,0.229-1.765,0.685s-0.713,1.04-0.713,1.75s0.236,1.303,0.708,1.78
			C15.404,19.692,15.964,19.93,16.611,19.93z"/>
		<path d="M20.743,21v-6.99h1.17v5.87h3.161V21H20.743z"/>
		<path d="M31.951,20.035c-0.7,0.69-1.565,1.035-2.596,1.035s-1.896-0.345-2.597-1.035s-1.05-1.55-1.05-2.58
			c0-1.03,0.35-1.89,1.05-2.58s1.566-1.035,2.597-1.035s1.896,0.345,2.596,1.035s1.051,1.55,1.051,2.58
			C33.002,18.485,32.651,19.345,31.951,20.035z M31.095,15.66c-0.473-0.494-1.053-0.74-1.739-0.74c-0.688,0-1.267,0.247-1.739,0.74
			c-0.473,0.493-0.709,1.092-0.709,1.795s0.236,1.302,0.709,1.795c0.473,0.494,1.052,0.74,1.739,0.74
			c0.687,0,1.267-0.247,1.739-0.74c0.472-0.493,0.708-1.092,0.708-1.795S31.566,16.153,31.095,15.66z"/>
		<path d="M36.573,14.93c-0.34,0-0.619,0.07-0.837,0.21c-0.218,0.14-0.327,0.352-0.327,0.635c0,0.284,0.109,0.5,0.327,0.65
			c0.218,0.15,0.682,0.312,1.393,0.485c0.71,0.173,1.245,0.417,1.605,0.73c0.359,0.313,0.54,0.775,0.54,1.385
			s-0.229,1.105-0.685,1.485c-0.455,0.38-1.054,0.57-1.793,0.57c-1.084,0-2.045-0.376-2.884-1.13l0.733-0.89
			c0.7,0.613,1.427,0.92,2.18,0.92c0.377,0,0.676-0.082,0.897-0.245c0.221-0.163,0.331-0.38,0.331-0.65s-0.104-0.48-0.312-0.63
			s-0.566-0.287-1.075-0.41c-0.509-0.123-0.896-0.236-1.159-0.34c-0.265-0.104-0.499-0.238-0.704-0.405
			c-0.409-0.313-0.614-0.793-0.614-1.44c0-0.646,0.232-1.145,0.698-1.495c0.466-0.35,1.042-0.525,1.729-0.525
			c0.442,0,0.882,0.074,1.318,0.22c0.436,0.146,0.813,0.354,1.129,0.62l-0.624,0.89c-0.205-0.187-0.482-0.34-0.832-0.46
			C37.259,14.99,36.914,14.93,36.573,14.93z"/>
		<path d="M45.587,14.01v1.11h-3.696v1.85h3.319v1.05h-3.319v1.87h3.814V21h-4.984v-6.99H45.587z"/>
	</g>
</g> -->
</svg>
