<?xml version="1.0" encoding="UTF-8" standalone="no"?>
<svg xmlns="http://www.w3.org/2000/svg" height="448pt" viewBox="0 0 448 448" width="448pt" version="1.1">
   <!-- <path
      d="M 224,0 C 100.28906,0 0,100.28906 0,224 0,347.71094 100.28906,448 224,448 347.71094,448 448,347.71094 448,224 447.85937,100.34766 347.65234,0.140625 224,0 Z"
      fill="#ffffff" stroke="#000000" stroke-width="5" /> -->
      <rect x="0" y="0" width="100%" height="100%" fill="#ffffff" stroke="#000000" stroke-width="7" />
   <path stroke-width="1.33333325"
      d="M 337.67773 214.41211 L 201.91211 350.16602 L 224.53125 372.80273 L 247.15625 395.42188 L 382.92188 259.65625 L 360.29688 237.03711 L 337.67773 214.41211 z "
      transform="scale(0.75000003)" />
   <path
      d="m304.167969 177.777344c9.375-9.375 9.375-24.574219 0-33.945313-9.503907-9.054687-24.441407-9.054687-33.945313 0l-5.65625 5.664063 33.9375 33.9375zm0 0" />
   <path d="m144.894531 278.71875-6.527343 30.914062 30.914062-6.527343-12.191406-12.195313zm0 0" />
</svg>