<?xml version="1.0" encoding="utf-8"?>
<!-- Generator: Adobe Illustrator 22.0.0, SVG Export Plug-In . SVG Version: 6.00 Build 0)  -->
<svg version="1.1" id="Layer_1" xmlns="http://www.w3.org/2000/svg" xmlns:xlink="http://www.w3.org/1999/xlink" x="0px" y="0px"
	 viewBox="0 0 251.5 59" style="enable-background:new 0 0 251.5 59;" xml:space="preserve">
<style type="text/css">
	.st0{fill:#007CB1;}
	.st1{fill:#A8A8A8;}
	.st2{fill:#86AA6F;}
	.st3{fill:#DD2246;}
	.st4{fill:#E2BA7A;}
</style>
<g>
	<g>
		<path class="st0" d="M5.6,51.1V25.5h8.3c2,0,3.8,0.3,5.3,1c1.5,0.7,2.8,1.6,3.8,2.7c1,1.1,1.7,2.5,2.3,4c0.5,1.5,0.7,3.2,0.7,4.9
			c0,1.9-0.3,3.7-0.8,5.3c-0.6,1.6-1.4,2.9-2.4,4c-1,1.1-2.3,2-3.8,2.6c-1.5,0.6-3.1,0.9-5,0.9L5.6,51.1L5.6,51.1z M24.7,38.3
			c0-1.7-0.2-3.2-0.7-4.6s-1.2-2.6-2.1-3.7c-0.9-1-2.1-1.8-3.4-2.4c-1.4-0.6-2.9-0.9-4.6-0.9H6.8v23.2h7.1c1.8,0,3.3-0.3,4.7-0.9
			c1.3-0.6,2.5-1.4,3.4-2.4s1.6-2.3,2-3.7C24.5,41.5,24.7,39.9,24.7,38.3z"/>
		<path class="st0" d="M36.6,51.4c-1.3,0-2.5-0.2-3.5-0.8c-1.1-0.5-2.1-1.2-2.9-2.1c-0.8-0.9-1.5-1.9-1.9-3.1s-0.7-2.4-0.7-3.8
			c0-1.3,0.2-2.6,0.7-3.7s1.1-2.2,1.9-3c0.8-0.9,1.8-1.5,2.8-2c1.1-0.5,2.3-0.7,3.5-0.7c1.3,0,2.5,0.2,3.6,0.7
			c1.1,0.5,2.1,1.2,2.9,2.1c0.8,0.9,1.5,1.9,1.9,3.1s0.7,2.4,0.7,3.7c0,0.1,0,0.2,0,0.3s0,0.2,0,0.2H28.8c0.1,1.1,0.4,2.2,0.8,3.2
			c0.4,1,1,1.9,1.7,2.6c0.7,0.7,1.5,1.3,2.4,1.7c0.9,0.4,1.9,0.6,2.9,0.6c0.7,0,1.3-0.1,2-0.3c0.6-0.2,1.3-0.4,1.9-0.8
			c0.6-0.3,1.1-0.7,1.5-1.2s0.8-1,1-1.5l1.1,0.3c-0.3,0.6-0.6,1.3-1.1,1.8c-0.5,0.6-1.1,1-1.8,1.5c-0.7,0.4-1.4,0.7-2.2,0.9
			S37.5,51.4,36.6,51.4z M44.4,41.2C44.3,40,44,39,43.6,38c-0.4-1-1-1.8-1.7-2.6c-0.7-0.7-1.5-1.3-2.4-1.7c-0.9-0.4-1.9-0.6-3-0.6
			c-1,0-2,0.2-3,0.6c-0.9,0.4-1.7,1-2.4,1.7c-0.7,0.7-1.2,1.6-1.7,2.6c-0.4,1-0.7,2-0.7,3.2L44.4,41.2L44.4,41.2z"/>
		<path class="st0" d="M53.6,51.4c-1.5,0-2.8-0.2-4-0.7c-1.2-0.5-2.3-1.2-3.3-2.2l0.7-0.8c1,0.9,2,1.6,3.1,2c1,0.5,2.2,0.7,3.5,0.7
			c1.8,0,3.2-0.4,4.2-1.1c1.1-0.7,1.6-1.8,1.6-3.1c0-0.6-0.1-1.1-0.4-1.6c-0.3-0.4-0.7-0.8-1.2-1.1c-0.5-0.3-1.2-0.6-1.9-0.8
			c-0.8-0.2-1.7-0.5-2.7-0.7c-1-0.2-1.9-0.5-2.7-0.7c-0.7-0.2-1.4-0.5-1.9-0.8c-0.5-0.3-0.9-0.7-1.1-1.2c-0.2-0.5-0.4-1.1-0.4-1.8
			c0-0.9,0.2-1.7,0.5-2.4c0.4-0.7,0.8-1.2,1.5-1.7c0.6-0.4,1.3-0.8,2.1-1c0.8-0.2,1.7-0.3,2.6-0.3c1.5,0,2.8,0.2,3.9,0.7
			c1.1,0.5,1.9,1.1,2.4,1.9l-0.8,0.6c-0.5-0.7-1.3-1.3-2.3-1.7c-1-0.4-2.1-0.6-3.2-0.6c-0.7,0-1.5,0.1-2.1,0.2
			c-0.6,0.2-1.2,0.4-1.7,0.7c-0.5,0.3-0.9,0.8-1.2,1.3c-0.3,0.5-0.4,1.1-0.4,1.9c0,0.6,0.1,1,0.3,1.5c0.2,0.4,0.5,0.7,0.9,1
			c0.4,0.2,1,0.5,1.6,0.6c0.6,0.2,1.4,0.4,2.3,0.6c1.1,0.3,2.2,0.5,3.1,0.8c0.9,0.3,1.6,0.6,2.3,0.9c0.6,0.4,1.1,0.8,1.4,1.3
			c0.3,0.5,0.5,1.2,0.5,2c0,0.8-0.2,1.6-0.5,2.3c-0.3,0.6-0.8,1.2-1.4,1.7c-0.6,0.5-1.4,0.8-2.2,1.1C55.6,51.3,54.6,51.4,53.6,51.4z
			"/>
		<path class="st0" d="M63.2,27.8v-3h1.2v3H63.2z M63.2,51.1V32.4h1.2v18.7H63.2z"/>
		<path class="st1" d="M76.1,51.4c-1.3,0-2.5-0.3-3.6-0.8c-1.1-0.6-2-1.3-2.8-2.2c-0.8-0.9-1.4-1.9-1.9-3.1
			c-0.4-1.1-0.7-2.3-0.7-3.5c0-1.3,0.2-2.5,0.6-3.6c0.4-1.2,1-2.2,1.8-3.1c0.8-0.9,1.7-1.6,2.7-2.2c1.1-0.5,2.3-0.8,3.5-0.8
			c0.8,0,1.6,0.1,2.3,0.4c0.7,0.2,1.4,0.6,2,1c0.6,0.4,1.2,0.9,1.7,1.5c0.5,0.6,1,1.1,1.5,1.8v-4.2h1.1v19.3c0,1.3-0.2,2.4-0.7,3.3
			c-0.5,0.9-1.1,1.7-1.9,2.3c-0.8,0.6-1.7,1.1-2.7,1.4c-1,0.3-2.1,0.5-3.2,0.5c-1.1,0-2.1-0.1-2.9-0.3c-0.9-0.2-1.6-0.5-2.3-0.9
			s-1.2-0.8-1.7-1.4c-0.5-0.5-0.9-1.1-1.3-1.8l0.9-0.5c0.8,1.3,1.8,2.3,3.1,2.9s2.7,0.9,4.2,0.9c1,0,1.9-0.1,2.8-0.4
			c0.9-0.3,1.6-0.7,2.3-1.2c0.7-0.5,1.2-1.2,1.6-2s0.6-1.7,0.6-2.8v-4.4c-0.4,0.6-0.8,1.2-1.4,1.7c-0.5,0.5-1.1,0.9-1.8,1.3
			c-0.6,0.4-1.3,0.6-1.9,0.8C77.5,51.3,76.8,51.4,76.1,51.4z M76.3,50.3c0.8,0,1.7-0.2,2.5-0.5c0.8-0.3,1.5-0.7,2.2-1.3
			c0.6-0.5,1.2-1.1,1.6-1.7c0.4-0.6,0.7-1.3,0.7-1.9v-6.5c-0.3-0.7-0.7-1.5-1.2-2.1c-0.5-0.6-1.1-1.2-1.8-1.7
			c-0.6-0.5-1.4-0.8-2.1-1.1c-0.7-0.3-1.5-0.4-2.3-0.4c-1.2,0-2.3,0.2-3.2,0.7c-0.9,0.5-1.7,1.2-2.4,2c-0.6,0.8-1.1,1.7-1.5,2.7
			s-0.5,2-0.5,3.1c0,1.1,0.2,2.2,0.6,3.2c0.4,1,1,1.9,1.7,2.7c0.7,0.8,1.5,1.4,2.5,1.9C74.2,50,75.2,50.3,76.3,50.3z"/>
		<path class="st2" d="M103.4,51.1h-1.2V40.6c0-2.6-0.4-4.4-1.1-5.6c-0.7-1.2-1.9-1.8-3.5-1.8c-0.8,0-1.7,0.2-2.5,0.5
			c-0.8,0.3-1.6,0.7-2.3,1.3c-0.7,0.6-1.3,1.2-1.9,1.9c-0.5,0.7-0.9,1.5-1.2,2.4v11.7h-1.2V32.4h1.2V37c0.4-0.7,0.9-1.4,1.5-2
			c0.6-0.6,1.2-1.1,1.9-1.6c0.7-0.4,1.5-0.8,2.3-1c0.8-0.2,1.6-0.4,2.5-0.4c2,0,3.4,0.7,4.3,2.1c0.9,1.4,1.3,3.5,1.3,6.3L103.4,51.1
			L103.4,51.1z"/>
		<path class="st2" d="M115.6,24.8l-0.4,3.3h0.5v2.9h-1.4v-3l0.6-3.3L115.6,24.8L115.6,24.8z"/>
		<path class="st3" d="M128.6,27.9v23.1h-1.3V25.5h0.9L147,49.1V25.5h1.3v25.5H147L128.6,27.9z"/>
		<path class="st3" d="M159.1,31.1l0.4-3.3H159v-3h1.4v3l-0.6,3.3H159.1z"/>
		<path class="st4" d="M189.4,44.5c0,0.9-0.2,1.8-0.5,2.6s-0.8,1.5-1.4,2.1c-0.6,0.6-1.3,1.1-2.1,1.4s-1.6,0.5-2.5,0.5h-11.9V25.5
			h11.6c0.9,0,1.7,0.2,2.4,0.6c0.7,0.4,1.3,0.9,1.8,1.5c0.5,0.6,0.9,1.3,1.2,2.1c0.3,0.8,0.4,1.6,0.4,2.3c0,1.3-0.3,2.5-1,3.5
			c-0.6,1.1-1.5,1.9-2.7,2.4c0.7,0.2,1.4,0.5,1.9,1c0.6,0.4,1.1,0.9,1.5,1.5c0.4,0.6,0.7,1.2,1,1.9C189.3,43,189.4,43.7,189.4,44.5z
			 M172.2,26.7v10.9h9.9c0.7,0,1.4-0.2,2-0.5c0.6-0.3,1.1-0.7,1.6-1.2c0.4-0.5,0.8-1.1,1-1.8c0.2-0.6,0.4-1.3,0.4-2
			c0-0.7-0.1-1.4-0.4-2.1c-0.2-0.6-0.6-1.2-1-1.8c-0.4-0.5-0.9-0.9-1.5-1.2c-0.6-0.3-1.2-0.5-1.9-0.5L172.2,26.7L172.2,26.7z
			 M188.2,44.3c0-0.7-0.1-1.4-0.4-2.1s-0.6-1.3-1.1-1.8c-0.5-0.5-1-0.9-1.6-1.2s-1.3-0.5-2-0.5h-10.9v11.2h10.6
			c0.7,0,1.5-0.2,2.1-0.5c0.6-0.3,1.2-0.7,1.7-1.3s0.9-1.1,1.1-1.8C188,45.7,188.2,45,188.2,44.3z"/>
		<path class="st4" d="M198,51.4c-2,0-3.5-0.7-4.4-2.1c-1-1.4-1.5-3.5-1.5-6.3V32.4h1.2v10.5c0,4.9,1.7,7.4,5,7.4
			c0.8,0,1.7-0.2,2.5-0.5s1.6-0.7,2.3-1.2c0.7-0.5,1.3-1.2,1.8-1.9c0.5-0.7,0.9-1.5,1.2-2.4V32.4h1.2v16.8c0,0.5,0.2,0.8,0.6,0.8
			v1.1c-0.1,0-0.2,0-0.4,0c-0.4,0-0.7-0.2-1-0.5c-0.3-0.3-0.4-0.7-0.4-1.1v-3.1c-0.8,1.5-1.9,2.7-3.4,3.6
			C201.2,51,199.7,51.4,198,51.4z"/>
		<path class="st4" d="M212.8,57.9c0.8,0,1.4-0.1,1.7-0.2c0.1-0.1,0.2-0.2,0.4-0.4c0.1-0.2,0.3-0.5,0.5-1c0.2-0.5,0.5-1.1,0.9-1.9
			c0.4-0.8,0.8-1.9,1.4-3.3l-8.5-18.7h1.3l7.9,17.4l7.4-17.4h1.2l-10.7,25c-0.3,0.8-1,1.3-2,1.5c-0.2,0.1-0.5,0.1-0.7,0.1
			c-0.2,0-0.5,0-0.7,0L212.8,57.9L212.8,57.9z"/>
	</g>
	<polygon class="st4" points="167,6.7 246.9,6.7 251.2,0.8 171.3,0.8 	"/>
	<polygon class="st3" points="141,0.8 136.7,6.7 167,6.7 171.3,0.8 	"/>
	<polygon class="st2" points="110.8,0.8 106.5,6.7 136.7,6.7 141,0.8 	"/>
	<polygon class="st1" points="86.4,0.8 82.1,6.7 106.5,6.7 110.8,0.8 	"/>
	<polygon class="st0" points="4.5,0.8 0.2,6.7 82.1,6.7 86.4,0.8 	"/>
</g>
</svg>
